<?xml version="1.0" standalone="no"?>
<!DOCTYPE svg PUBLIC "-//W3C//DTD SVG 20010904//EN"
 "http://www.w3.org/TR/2001/REC-SVG-20010904/DTD/svg10.dtd">
<svg version="1.0" xmlns="http://www.w3.org/2000/svg"
 width="1809.000000pt" height="1761.000000pt" viewBox="0 0 1809.000000 1761.000000"
 preserveAspectRatio="xMidYMid meet">
<metadata>
Created by potrace 1.15, written by Peter Selinger 2001-2017
</metadata>
<g transform="translate(0.000000,1761.000000) scale(0.100000,-0.100000)"
fill="#000000" stroke="none">
<path d="M15290 17375 c-176 -29 -352 -92 -492 -176 -360 -217 -593 -550 -674
-964 -24 -123 -24 -377 -1 -500 46 -238 142 -452 287 -637 l21 -26 -1582
-1621 c-870 -893 -1586 -1618 -1591 -1615 -6 4 -66 48 -133 99 -1594 1199
-3678 1591 -5615 1056 -79 -22 -146 -38 -149 -36 -3 4 149 721 165 776 3 13
24 17 94 22 308 22 612 158 846 380 219 207 367 482 421 780 22 122 22 360 -1
485 -52 296 -194 562 -410 769 -277 266 -597 395 -981 395 -303 -1 -553 -77
-795 -243 -493 -337 -716 -942 -564 -1529 108 -413 420 -773 810 -933 l80 -33
-117 -537 c-64 -296 -119 -540 -120 -541 -2 -2 -56 -25 -119 -52 -842 -357
-1675 -965 -2302 -1681 -1203 -1374 -1769 -3174 -1567 -4988 83 -751 288
-1455 625 -2142 l84 -172 -51 -83 c-98 -161 -170 -343 -211 -532 -30 -139 -33
-502 -5 -641 63 -311 212 -601 421 -823 236 -249 537 -415 879 -484 97 -20
141 -23 327 -22 182 0 230 4 317 22 139 30 269 74 389 131 l102 49 103 -66
c1495 -947 3325 -1239 5049 -807 1442 362 2729 1226 3627 2435 341 459 650
1024 851 1556 208 548 340 1124 393 1710 l12 131 616 237 c545 210 617 235
626 220 80 -132 143 -213 244 -315 212 -211 428 -328 725 -391 146 -31 398
-30 546 1 286 61 518 183 714 376 243 240 386 543 415 884 54 615 -295 1191
-864 1426 -249 103 -570 132 -830 76 -480 -105 -859 -432 -1032 -891 -56 -147
-75 -261 -79 -469 l-4 -195 -527 -203 c-289 -112 -528 -201 -530 -199 -2 2 -8
93 -13 202 -58 1182 -419 2291 -1065 3264 -263 397 -571 771 -885 1074 l-116
112 1585 1625 1586 1625 90 -42 c191 -89 370 -127 595 -127 231 0 424 43 619
138 505 246 811 758 788 1320 -16 385 -158 701 -435 966 -192 185 -415 304
-677 361 -120 26 -395 33 -515 13z m-7720 -4685 c667 -41 1291 -179 1890 -420
431 -173 930 -451 1302 -727 l128 -95 -62 -68 c-35 -37 -1637 -1681 -3561
-3653 l-3498 -3585 -67 41 c-37 22 -105 58 -150 79 -74 34 -83 41 -79 61 3 12
398 1823 878 4023 l873 4001 190 62 c693 224 1457 324 2156 281z m-2926 -617
c-3 -16 -380 -1745 -838 -3843 l-832 -3815 -160 -7 c-315 -13 -595 -98 -834
-252 -39 -25 -72 -46 -74 -46 -7 0 -139 294 -192 428 -194 482 -330 1021 -388
1532 -55 491 -46 1040 25 1535 253 1762 1321 3350 2869 4265 123 73 410 229
422 230 4 0 5 -12 2 -27z m6756 -1069 c367 -355 748 -845 1005 -1294 502 -875
767 -1822 792 -2830 l6 -245 -4383 -1688 c-2411 -928 -4385 -1686 -4386 -1684
-2 2 -5 13 -6 25 -3 19 328 228 2486 1572 l2488 1550 41 -36 c161 -146 403
-234 642 -234 279 0 525 106 716 308 102 108 171 219 215 349 41 122 54 199
54 333 0 445 -300 836 -730 952 -73 20 -109 23 -255 23 -202 0 -281 -17 -440
-95 -193 -94 -349 -250 -445 -445 -78 -158 -95 -237 -95 -440 0 -125 4 -185
16 -225 l16 -55 -2399 -1495 c-1320 -822 -2436 -1517 -2480 -1544 -75 -46 -80
-47 -93 -30 -8 11 -13 22 -12 26 3 11 7122 7307 7129 7308 5 0 57 -48 118
-106z m1760 -4951 c0 -37 -42 -304 -71 -453 -156 -801 -481 -1568 -953 -2247
-215 -310 -393 -521 -690 -819 -242 -241 -392 -372 -641 -559 -917 -689 -2012
-1095 -3170 -1176 -219 -15 -778 -6 -975 15 -726 80 -1368 261 -1986 561 -299
144 -570 300 -556 319 5 6 32 40 59 76 132 171 230 377 288 609 19 75 44 256
45 321 l0 45 4318 1662 c2374 914 4320 1662 4325 1663 4 0 7 -8 7 -17z
m-10095 -2268 c381 -72 699 -372 807 -762 19 -67 22 -104 22 -263 0 -174 -2
-191 -27 -274 -89 -288 -266 -507 -520 -641 -671 -356 -1484 108 -1523 870
-22 411 208 798 581 980 215 105 426 134 660 90z"/>
</g>
</svg>
