<?xml version="1.0" encoding="UTF-8" standalone="no"?>
<!-- Created with Inkscape (http://www.inkscape.org/) -->

<svg
   width="512"
   height="512"
   viewBox="0 0 512 512"
   version="1.1"
   id="svg1"
   inkscape:version="1.3 (0e150ed6c4, 2023-07-21)"
   sodipodi:docname="pt-logo.svg"
   xml:space="preserve"
   xmlns:inkscape="http://www.inkscape.org/namespaces/inkscape"
   xmlns:sodipodi="http://sodipodi.sourceforge.net/DTD/sodipodi-0.dtd"
   xmlns="http://www.w3.org/2000/svg"
   xmlns:svg="http://www.w3.org/2000/svg"><sodipodi:namedview
     id="namedview1"
     pagecolor="#ffffff"
     bordercolor="#000000"
     borderopacity="0.25"
     inkscape:showpageshadow="2"
     inkscape:pageopacity="0.0"
     inkscape:pagecheckerboard="0"
     inkscape:deskcolor="#d1d1d1"
     inkscape:document-units="px"
     inkscape:zoom="1"
     inkscape:cx="416.5"
     inkscape:cy="314.5"
     inkscape:window-width="1920"
     inkscape:window-height="1129"
     inkscape:window-x="1912"
     inkscape:window-y="-3"
     inkscape:window-maximized="1"
     inkscape:current-layer="layer1" /><defs
     id="defs1"><inkscape:path-effect
       effect="fillet_chamfer"
       id="path-effect44"
       is_visible="true"
       lpeversion="1"
       nodesatellites_param=""
       radius="0"
       unit="px"
       method="auto"
       mode="F"
       chamfer_steps="1"
       flexible="false"
       use_knot_distance="true"
       apply_no_radius="true"
       apply_with_radius="true"
       only_selected="false"
       hide_knots="false" /><inkscape:path-effect
       effect="fillet_chamfer"
       id="path-effect39"
       is_visible="true"
       lpeversion="1"
       nodesatellites_param="F,0,0,1,0,0,0,1 @ F,0,0,1,0,3.8122082,0,1 @ F,0,0,1,0,0,0,1 @ F,0,0,1,0,0,0,1"
       radius="0"
       unit="px"
       method="auto"
       mode="F"
       chamfer_steps="1"
       flexible="false"
       use_knot_distance="true"
       apply_no_radius="true"
       apply_with_radius="true"
       only_selected="false"
       hide_knots="false" /><inkscape:path-effect
       effect="fillet_chamfer"
       id="path-effect38"
       is_visible="true"
       lpeversion="1"
       nodesatellites_param="F,0,0,1,0,0,0,1 @ F,0,0,1,0,0,0,1 @ F,0,0,1,0,2.6938708,0,1 @ F,0,0,1,0,3.1963612,0,1"
       radius="0"
       unit="px"
       method="auto"
       mode="F"
       chamfer_steps="1"
       flexible="false"
       use_knot_distance="true"
       apply_no_radius="true"
       apply_with_radius="true"
       only_selected="false"
       hide_knots="false" /><inkscape:path-effect
       effect="fillet_chamfer"
       id="path-effect37"
       is_visible="true"
       lpeversion="1"
       nodesatellites_param="F,0,0,1,0,1.6860078,0,1 @ F,0,0,1,0,0.43717476,0,1 @ F,0,0,1,0,2.2756413,0,1 @ F,0,0,1,0,1.753466,0,1"
       radius="0"
       unit="px"
       method="auto"
       mode="F"
       chamfer_steps="1"
       flexible="false"
       use_knot_distance="true"
       apply_no_radius="true"
       apply_with_radius="true"
       only_selected="false"
       hide_knots="false" /><inkscape:path-effect
       effect="fillet_chamfer"
       id="path-effect36"
       is_visible="true"
       lpeversion="1"
       nodesatellites_param="F,0,0,1,0,0,0,1 @ F,0,0,1,0,0,0,1 @ F,0,0,1,0,0,0,1 @ F,0,0,1,0,0,0,1"
       radius="0"
       unit="px"
       method="auto"
       mode="F"
       chamfer_steps="1"
       flexible="false"
       use_knot_distance="true"
       apply_no_radius="true"
       apply_with_radius="true"
       only_selected="false"
       hide_knots="false" /><inkscape:path-effect
       effect="fillet_chamfer"
       id="path-effect27"
       is_visible="true"
       lpeversion="1"
       nodesatellites_param="F,0,0,1,0,0,0,1 @ F,0,0,1,0,0,0,1 @ F,0,0,1,0,2.5625015,0,1 @ F,0,0,1,0,2.5454354,0,1"
       radius="0"
       unit="px"
       method="auto"
       mode="F"
       chamfer_steps="1"
       flexible="false"
       use_knot_distance="true"
       apply_no_radius="true"
       apply_with_radius="true"
       only_selected="false"
       hide_knots="false" /><inkscape:path-effect
       effect="fillet_chamfer"
       id="path-effect26"
       is_visible="true"
       lpeversion="1"
       nodesatellites_param="F,0,0,1,0,0,0,1 @ F,0,0,1,0,0,0,1 @ F,0,0,1,0,0,0,1 @ F,0,0,1,0,13.752009,0,1"
       radius="0"
       unit="px"
       method="auto"
       mode="F"
       chamfer_steps="1"
       flexible="false"
       use_knot_distance="true"
       apply_no_radius="true"
       apply_with_radius="true"
       only_selected="false"
       hide_knots="false" /><inkscape:path-effect
       effect="fillet_chamfer"
       id="path-effect25"
       is_visible="true"
       lpeversion="1"
       nodesatellites_param="F,0,0,1,0,0,0,1 @ F,0,0,1,0,0,0,1 @ F,0,0,1,0,0,0,1 @ F,0,0,1,0,0,0,1"
       radius="0"
       unit="px"
       method="auto"
       mode="F"
       chamfer_steps="1"
       flexible="false"
       use_knot_distance="true"
       apply_no_radius="true"
       apply_with_radius="true"
       only_selected="false"
       hide_knots="false" /><inkscape:perspective
       sodipodi:type="inkscape:persp3d"
       inkscape:vp_x="71.580213 : 455.98384 : 1"
       inkscape:vp_y="0 : 981.66802 : 0"
       inkscape:vp_z="428.00703 : 480.39559 : 1"
       inkscape:persp3d-origin="248.13859 : 62.723489 : 1"
       id="perspective1" /></defs><g
     inkscape:groupmode="layer"
     id="layer2"
     inkscape:label="Ebene 2"
     style="display:inline" /><g
     inkscape:label="Ebene 1"
     inkscape:groupmode="layer"
     id="layer1"
     style="display:inline"
     transform="matrix(0.921875,0,0,0.93359375,12,12)"><ellipse
       style="display:inline;fill:#323232;fill-opacity:1;stroke-width:7.09426"
       id="path48"
       cx="264.67798"
       cy="261.19498"
       rx="264.67798"
       ry="261.19498" /><g
       id="g47"
       transform="matrix(7.8257896,0,0,8.197181,-1383.2184,-744.09772)"
       style="display:inline"><g
         id="g46"
         transform="matrix(1,0,-0.08540303,1,10.437275,-0.50065048)"
         style="display:inline"><path
           id="rect35"
           style="fill:#eb34d3;fill-opacity:1;stroke-width:0.945898"
           d="m 228.35402,128.36101 h -15.70936 l -0.28038,2.50309 h 15.70935 z" /><path
           id="path42"
           style="fill:#1e1e1e;fill-opacity:1;stroke-width:0.94451"
           d="m 214.56518,111.73379 -1.90053,16.91749 h 15.6863 l 1.90054,-16.91749 z" /><path
           id="path43"
           style="fill:#eb34d3;fill-opacity:1;stroke-width:0.943836"
           d="m 230.51595,109.40183 h -15.67512 l -0.27978,2.49765 h 15.67512 z" /></g><g
         id="g45"
         transform="matrix(1,0,-0.08540303,1,11.709372,-0.25)"
         style="display:inline"><path
           id="rect36"
           style="fill:#1e1e1e;fill-opacity:1;stroke-width:1.17838"
           d="m 227.20488,133.71615 7.2e-4,14.11 h 16.36328 l -7.2e-4,-14.11 z"
           transform="matrix(1,0,-0.10151369,0.99483414,0,0)" /><path
           id="path41"
           style="fill:#e517ca;fill-opacity:1;stroke-width:1.17838"
           d="m 227.20488,133.71615 h 16.36328 l 9.6e-4,-2.41482 h -16.36328 z"
           transform="matrix(1,0,-0.10151369,0.99483414,0,0)" /><path
           id="path41-6"
           style="display:inline;fill:#e517ca;fill-opacity:1;stroke-width:1.17644"
           d="m 212.00781,148.8164 h 16.39407 l 0.24656,-2.40234 h -16.39407 z" /></g><path
         id="rect30"
         style="fill:#e47337;fill-opacity:1;stroke-width:1"
         d="m 219.41031,114.19922 -0.77911,5.25391 -2.92258,-0.0801 a 1.6128011,1.7625374 46.271291 0 0 -1.87599,1.63867 l -0.0106,0.0977 a 1.6773303,1.8330576 46.271291 0 0 1.54533,1.79883 l 2.74145,0.0742 -2.75341,18.59961 h -0.002 l -0.11258,1.26758 a 3.0575748,3.3414472 46.27129 0 0 2.91332,3.19727 h 5.42382 a 2.5769026,2.8161483 46.271291 0 0 2.93274,-2.69531 l 0.15715,-1.76954 h -0.006 l 0.0213,-0.24023 a 3.5168416,3.8433535 46.271291 0 0 -3.19656,-3.8125 l -0.35993,4.05273 h -3.88282 l 2.73801,-18.49218 3.64546,0.0996 a 2.1768327,2.378935 46.271291 0 0 2.53442,-2.21289 l 0.0945,-0.82227 a 0.41819258,0.45701857 46.271291 0 0 -0.38588,-0.44922 l -5.3659,-0.14648 0.79433,-5.35937 z" /></g><g
       id="g48"
       transform="matrix(7.8257896,0,0,8.197181,-1293.2962,-744.09772)"><g
         id="g39"
         transform="matrix(1,0,0,1.0273049,0,-2.726571)"
         style="display:inline"><path
           id="rect22"
           style="display:inline;fill:#1e1e1e;fill-opacity:1;stroke-width:0.791209"
           d="m 182.00977,100.17578 -1.95508,31.30469 a 13.368522,14.250697 52.930483 0 0 13.05469,13.69531 h 0.10742 l 1.65234,-26.46094 a 15.964753,9.7419975 3.0145239 0 1 -1.50781,0.27539 15.964753,9.7419975 3.0145239 0 1 -1.94727,0.20704 15.964753,9.7419975 3.0145239 0 1 -1.98633,0.0527 l 0.9668,-19.07422 z m 10.68945,0 a 15.964753,9.7419975 3.0145239 0 1 1.60156,0.3457 15.964753,9.7419975 3.0145239 0 1 1.67383,0.49805 l 0.0527,-0.84375 z" /><path
           d="m 186.76638,99.85657 -1.22959,19.89271 a 19.99267,9.9969625 2.0652237 0 0 2.48888,-0.0543 19.99267,9.9969625 2.0652237 0 0 2.43876,-0.21055 19.99267,9.9969625 2.0652237 0 0 2.35145,-0.36401 19.99267,9.9969625 2.0652237 0 0 2.22682,-0.51028 19.99267,9.9969625 2.0652237 0 0 2.06478,-0.64926 19.99267,9.9969625 2.0652237 0 0 1.87395,-0.77777 19.99267,9.9969625 2.0652237 0 0 1.65261,-0.89583 19.99267,9.9969625 2.0652237 0 0 1.40551,-0.99735 19.99267,9.9969625 2.0652237 0 0 1.1365,-1.08367 19.99267,9.9969625 2.0652237 0 0 0.84887,-1.15458 19.99267,9.9969625 2.0652237 0 0 0.5478,-1.20705 19.99267,9.9969625 2.0652237 0 0 0.23842,-1.23927 19.99267,9.9969625 2.0652237 0 0 -0.0807,-1.25431 19.99267,9.9969625 2.0652237 0 0 -0.39249,-1.24847 19.99267,9.9969625 2.0652237 0 0 -0.69838,-1.22328 19.99267,9.9969625 2.0652237 0 0 -0.99498,-1.17717 19.99267,9.9969625 2.0652237 0 0 -1.27337,-1.11266 19.99267,9.9969625 2.0652237 0 0 -1.53338,-1.03267 19.99267,9.9969625 2.0652237 0 0 -1.76981,-0.93555 19.99267,9.9969625 2.0652237 0 0 -1.97559,-0.82244 19.99267,9.9969625 2.0652237 0 0 -2.15391,-0.69789 19.99267,9.9969625 2.0652237 0 0 -2.29602,-0.5615 19.99267,9.9969625 2.0652237 0 0 -2.40342,-0.41779 19.99267,9.9969625 2.0652237 0 0 -2.47263,-0.2651 z"
           style="display:inline;fill:#363636;fill-opacity:1;stroke-width:0.986876"
           id="path26-6" /></g><g
         id="g34"><path
           id="rect29"
           style="display:inline;fill:#e47337;fill-opacity:1;stroke-width:0.689447"
           d="m 191.26861,96.76659 0.33557,26.41314 a 26.597631,13.225974 3.4698073 0 0 0.006,0 l -4.4e-4,20.19472 -3.03498,-0.20761 0.002,0.50531 a 2.6458295,2.4556655 44.999999 0 0 2.56777,2.72044 l 13.72204,0.93619 a 2.6635687,2.4721298 44.999999 0 0 2.55272,-2.38748 l -0.003,-0.48768 -11.62155,-0.79322 3.3e-4,-20.61581 a 26.597631,13.225974 3.4698073 0 0 2.31585,-0.2174 26.597631,13.225974 3.4698073 0 0 3.07921,-0.48376 26.597631,13.225974 3.4698073 0 0 2.90268,-0.67766 26.597631,13.225974 3.4698073 0 0 2.67427,-0.85981 26.597631,13.225974 3.4698073 0 0 2.40543,-1.03412 26.597631,13.225974 3.4698073 0 0 2.1029,-1.18885 26.597631,13.225974 3.4698073 0 0 1.76471,-1.32398 26.597631,13.225974 3.4698073 0 0 1.39869,-1.43955 26.597631,13.225974 3.4698073 0 0 1.01097,-1.53159 26.597631,13.225974 3.4698073 0 0 0.60714,-1.60406 26.597631,13.225974 3.4698073 0 0 0.19393,-1.64519 26.597631,13.225974 3.4698073 0 0 -0.23151,-1.66674 26.597631,13.225974 3.4698073 0 0 -0.64484,-1.65694 26.597631,13.225974 3.4698073 0 0 -1.04471,-1.62364 26.597631,13.225974 3.4698073 0 0 -1.43667,-1.56294 26.597631,13.225974 3.4698073 0 0 -1.79744,-1.47675 26.597631,13.225974 3.4698073 0 0 -2.13347,-1.37295 26.597631,13.225974 3.4698073 0 0 -2.43995,-1.23977 26.597631,13.225974 3.4698073 0 0 -2.69855,-1.092876 26.597631,13.225974 3.4698073 0 0 -2.92639,-0.926399 26.597631,13.225974 3.4698073 0 0 -3.09853,-0.746212 26.597631,13.225974 3.4698073 0 0 -3.22681,-0.554272 26.597631,13.225974 3.4698073 0 0 -3.30359,-0.352541 z m 3.48006,3.90341 a 18.892055,9.5110335 3.5608139 0 1 2.34693,0.25265 18.892055,9.5110335 3.5608139 0 1 2.29132,0.39759 18.892055,9.5110335 3.5608139 0 1 2.20206,0.53665 18.892055,9.5110335 3.5608139 0 1 2.07692,0.66591 18.892055,9.5110335 3.5608139 0 1 1.918,0.78734 18.892055,9.5110335 3.5608139 0 1 1.73431,0.89114 18.892055,9.5110335 3.5608139 0 1 1.51489,0.98712 18.892055,9.5110335 3.5608139 0 1 1.28021,1.06154 18.892055,9.5110335 3.5608139 0 1 1.01924,1.12421 18.892055,9.5110335 3.5608139 0 1 0.74511,1.1673 18.892055,9.5110335 3.5608139 0 1 0.45808,1.19473 18.892055,9.5110335 3.5608139 0 1 0.16331,1.19668 18.892055,9.5110335 3.5608139 0 1 -0.13458,1.18297 18.892055,9.5110335 3.5608139 0 1 -0.42974,1.15359 18.892055,9.5110335 3.5608139 0 1 -0.71674,1.10267 18.892055,9.5110335 3.5608139 0 1 -0.99332,1.03412 18.892055,9.5110335 3.5608139 0 1 -1.25321,0.95382 18.892055,9.5110335 3.5608139 0 1 -1.49111,0.85393 18.892055,9.5110335 3.5608139 0 1 -1.70841,0.74229 18.892055,9.5110335 3.5608139 0 1 -1.89909,0.62087 18.892055,9.5110335 3.5608139 0 1 -2.0594,0.48768 18.892055,9.5110335 3.5608139 0 1 -2.18903,0.34666 18.892055,9.5110335 3.5608139 0 1 -2.27991,0.20174 18.892055,9.5110335 3.5608139 0 1 -2.33981,0.0529 z"
           transform="matrix(1,0,-0.07444881,0.99722484,0,0)" /></g></g></g></svg>
