<svg version="1" xmlns="http://www.w3.org/2000/svg" width="2412" height="2412" viewBox="0 0 1809 1809"><path d="M1546.7 45.5c-.1.2-3.8.5-8.2.9-26 2-54.7 13.3-74.6 29.3-23.6 19-41.9 47.1-49.3 76-1.4 5.5-1.8 7.4-3.3 18.3-1.4 10.5-.7 29.9 1.6 42.5 3.5 19.1 12.9 40.9 24.5 56.5l6.2 8.4-17.1 17.5c-9.3 9.5-20.8 21.3-25.5 26.1-4.7 4.8-22.4 23-39.5 40.4-17 17.5-35.2 36.1-40.4 41.4-5.1 5.4-23.3 24-40.5 41.5-17.1 17.6-35.1 36-40 41-4.8 5.1-22.2 22.9-38.5 39.6-16.3 16.7-34.5 35.4-40.4 41.5-24.7 25.3-34.9 35.6-35.4 35.6s-7.2-4.9-9.1-6.8c-.8-.6-4.4-3.3-8-5.9-3.7-2.6-6.9-5-7.2-5.3-1-1-29.6-20.3-34.1-22.9-1.3-.8-6.2-3.8-10.9-6.6-22.3-13.7-53.7-29.7-78-39.9-7.4-3.1-14.4-6.1-15.5-6.6-1.1-.5-5.6-2.2-10-3.8-4.4-1.7-8.9-3.3-10-3.7-1.1-.5-2.4-.9-3-1-.5-.2-3.5-1.2-6.5-2.4-9.1-3.4-34.5-10.9-51-15.1-30-7.6-65.3-13.8-94-16.5-3-.3-7.5-.7-10-1-25.2-2.5-90-2.5-109.5 0-1.6.2-5.9.6-9.5 1-3.6.3-9.9 1-14 1.5s-9.3 1.2-11.5 1.4c-7.4.9-29.9 4.7-36 6.1-3.3.8-7.6 1.7-9.5 2-6.2 1-40 9.6-47.2 11.9l-7 2.3.7-3.6c.4-2 .9-4.7 1.1-6 .3-1.2 1.2-5.3 2-9 .9-3.6 1.7-7.3 1.9-8.1.2-.8 1.5-7.1 3-14 2.8-12.8 7.3-34 8-37.4.7-3 1.4-3.3 10.5-4 4.7-.3 9.6-.8 11-1.1 1.4-.2 3.9-.7 5.5-1.1 15.8-3 38.8-13.1 52.9-23.2 15.7-11.2 32.8-30.6 42.3-48.2 6.8-12.7 13.1-31.8 15-45.5 1-7.4 1-33.2 0-40-4.4-31.2-17.8-57.7-40.1-80-22.3-22.2-51.1-36.4-81.1-40.1-7.6-.9-25-1-33.5-.2-40.7 4.1-79.4 28-102.5 63.2-10.4 16.1-19 38.9-21.2 56.6-1.2 10.1-.9 35.7.6 43.5 3 15.6 9.2 33.5 15.2 43.7 1.6 2.7 2.9 5.3 2.9 5.8 0 .6.5 1 1 1 .6 0 1 .5 1 1 0 .9 3.5 6.5 5 8 .3.3 1.8 2.2 3.4 4.3 7.4 10 21.4 22.6 34.8 31.4 7.2 4.6 25.1 13.3 27.6 13.3.8 0 1.1.8.7 2.2-.2 1.3-2.7 12.9-5.5 25.8-15 69.4-17.6 81.1-18.2 81.4-.2.1-5.9 2.6-12.8 5.6-33.7 14.4-73.6 36.4-105 57.9-9.8 6.7-31.1 22.1-32 23.1-.3.3-1.4 1.3-2.6 2.1-1.1.8-4.3 3.2-6.9 5.4-2.7 2.2-8 6.6-11.9 9.8-12.1 10-21.5 18.6-38.1 34.9C212.2 705.5 166.1 771.6 133 845c-7.5 16.6-22.3 54.4-23.5 60-.2.8-1.5 4.9-2.8 9-2.4 7.3-8.6 28-9.2 31-.2.8-1.7 7.1-3.4 14s-3.2 13.6-3.5 15c-.2 1.4-1.1 5.9-2 10-.8 4.1-1.8 9.1-2.1 11-.3 1.9-1 5.7-1.5 8.5-.5 2.7-1.2 7.2-1.6 10-.3 2.7-.7 5.7-.9 6.5-.1.8-.6 4.4-1 8-.4 3.6-.9 7.2-1 8.1-.2.9-.6 5.2-1 9.5s-.8 9-1 10.4c-2.5 15.9-2.4 86.1 0 109.2.2 2.4.7 7 1 10.3 1.1 11.4 2.7 23.1 5.6 40.9 2.4 14.9 4.2 23.7 10.4 50.8 3.4 15 19.2 65.2 24.1 76.3 1 2.2 1.9 4.5 2 5.1.1.6.9 2.7 1.7 4.5.9 1.9 4.8 10.8 8.8 19.9 4 9.1 10 21.9 13.4 28.6l6.2 12-2.7 4c-11.6 16.6-21 40.2-24.4 60.9-2.5 15.2-2.7 16.6-2.7 28.5 0 14.1 1.5 28.1 4.3 38.5.5 2.2 1.2 5 1.4 6.2.7 3.8 6.5 19.5 9.7 26.3 10.1 21.4 28.4 44.9 44.5 57.2 3.1 2.4 5.9 4.6 6.2 4.9 1.6 2 17.9 11.8 26.5 15.9 44.3 21.4 97.5 21.7 141.1.9 4.9-2.4 9.6-4.6 10.5-5 1.1-.5 4.1.8 9 4 4.1 2.6 12.6 7.7 18.9 11.5 6.3 3.7 12.2 7.1 13 7.6 9.4 5.7 36.5 19.4 56 28.2 24.4 11.1 74.9 28.8 95 33.3.8.2 5.1 1.3 9.5 2.5 6.9 1.8 22.2 5.3 28.9 6.6 7.8 1.5 25.7 4.6 28.6 5 1.9.3 4.6.7 6 .9 2.2.4 9.2 1.3 23.5 3 2.2.2 7.2.7 11 1 3.9.3 8.6.8 10.5 1 4.3.5 38.8 1.8 48.5 1.8 8.4 0 42.6-1.3 47.5-1.8 1.9-.2 7.1-.6 11.5-1 4.4-.3 9.4-.8 11-1 1.7-.3 6.8-.9 11.5-1.5s9.6-1.3 11-1.5c1.4-.2 4.3-.6 6.5-1 16.1-2.4 41.2-7.4 57.2-11.4 46.3-11.7 85.8-26.2 130.3-47.9 6.3-3.1 14.9-7.5 19-9.8 4.1-2.3 9.8-5.4 12.5-6.9 20.5-11.3 50.5-31.1 72.5-47.8 8-6.1 14.7-11.3 15-11.7.3-.3 1.5-1.3 2.6-2.1 13.2-9 57.5-51.5 77.4-74.4 5.8-6.6 10.7-12.2 11-12.5.3-.3 4-4.8 8.1-10 42.4-53.2 74.6-108.6 98.4-169.5 6.8-17.3 16.2-44.7 19.4-56.6 1.1-4.1 2.7-9.9 3.5-12.9 1.9-6.7 8.3-34.1 9.1-39 .3-1.9 1-5.3 1.5-7.5s1.2-6 1.5-8.5c.4-2.4.8-4.7 1-5 .1-.3.6-3 .9-6 .6-5.2 1.1-8.2 2.1-14 .2-1.4.7-5.7 1.1-9.5.3-3.9.8-7.9 1-9 .2-1 .6-5.6.9-10.1.6-7.9 1.1-12.4 1.7-12.9.2-.2 19-7.5 41.8-16.3 54.8-21.1 52.6-20.3 67.6-26.1 7.2-2.8 13.4-5.1 13.7-5.1.3 0 2.2 2.8 4.3 6.3 19.4 32.3 51.4 55.9 87.4 64.5 11.9 2.9 18.6 3.6 33 3.6 15.3.1 22-.7 34.7-3.9 26-6.6 45.9-18 64.8-36.9 20.4-20.4 32.2-42.1 38.7-71 2.6-11.6 3.2-35.9 1.1-49.6-8-54.5-49.5-100.6-102.7-114.5-5.3-1.3-11.7-2.7-14.4-3-2.6-.4-5.8-.8-7.2-1.1-1.4-.2-7.2-.5-13-.5-26-.1-49.3 5.9-71 18.3-33.7 19.3-58.4 51.9-66.8 88.3-3.7 16.4-4 18.6-3.9 35.2l.1 16.5-15.5 5.9c-8.5 3.3-19 7.3-23.4 9-4.4 1.7-8.9 3.4-10 3.9-5.7 2.6-57.7 22.2-58 21.9-.1-.2-.6-8.3-1-17.9-.9-21-.8-19.7-3.1-42.5-1.6-16-5.8-43.3-8.4-55.5-.5-2.5-1.2-5.6-1.4-7-4.5-25.8-19.6-75.8-32.8-108.4-33.7-83.4-81.5-155.3-145.8-219.4l-15.4-15.2 4.1-4.3c2.3-2.3 7.4-7.6 11.5-11.8 4-4.3 20.9-21.6 37.5-38.5 16.5-17 34.9-35.9 40.8-41.9 5.9-6.1 24.1-24.7 40.5-41.5s34.7-35.5 40.6-41.7c6-6.1 24-24.5 40-41 16.1-16.4 33.6-34.4 39-40 5.5-5.5 22-22.5 36.8-37.7l26.9-27.5 6.8 3.5c3.8 1.9 11.5 4.9 17.1 6.8 9.6 3.2 12.7 4 20.3 5.3 1.7.2 4.8.8 7 1.2 5 .9 30.1.7 37-.3 13.1-1.9 32.3-7.9 43.5-13.6 5.9-3 20-11.6 21-12.9.3-.3 2.1-1.8 4.1-3.3 5.7-4.2 16-14.6 22.1-22.3 26.9-33.9 36.5-78.4 26.2-120.5-6.4-25.6-18.1-46.6-36.9-65.5-23.8-24.1-53.6-38.3-86.4-41.1-7.5-.6-17-1.1-17.4-.9zM764.2 515.4c1.4.2 6.8.7 11.9 1.1 5.2.4 10 .8 10.9 1 .8.2 4.7.6 8.5 1 3.9.4 7.7.9 8.7 1 .9.2 3.8.7 6.5 1 8.6 1.2 20.8 3.4 31.4 5.5 5.7 1.2 11.5 2.4 12.9 2.6 5 1 28.8 7.3 40.9 10.8 14.7 4.4 35.6 11.8 54.1 19.3 12.1 4.9 53.4 24.7 63.5 30.5 2.2 1.3 6.7 3.9 10 5.7 3.3 1.9 9.7 5.9 14.3 8.8 4.5 2.9 8.4 5.3 8.7 5.3.2 0 6.3 4.2 13.5 9.2 7.3 5.1 14.2 10 15.4 10.8 5.9 4.1 13.6 10.3 13.6 11.1 0 .5-3.7 4.6-8.2 9.2-10.4 10.6-66.1 67.6-78.8 80.7-5.2 5.4-23.5 24.1-40.6 41.7-17.1 17.5-34.9 35.7-39.5 40.5-4.6 4.7-22 22.5-38.5 39.5-16.6 16.9-34.5 35.3-39.9 40.8-5.3 5.5-23.5 24.1-40.4 41.3-16.8 17.3-34.6 35.5-39.5 40.5-4.9 5.1-22.4 23.1-39 40-16.5 17-34.4 35.3-39.6 40.7-5.2 5.4-23.3 23.9-40.1 41.2-16.9 17.2-35 35.8-40.4 41.3-13.7 14.1-66 67.7-109 111.7-11 11.3-33.7 34.6-50.5 51.8-16.8 17.2-39 40-49.5 50.7l-19 19.4-3.6-2.5c-4-2.7-19.6-10.8-24.2-12.5-2-.8-2.7-1.6-2.3-2.9.3-.9 1.2-4.9 2-8.7 2.9-13.7 7.5-35.1 9.2-42 .9-3.9 1.8-8.4 2.1-10 .2-1.7.8-4.4 1.3-6 .5-1.7 1.1-4.4 1.4-6 .2-1.7 2.3-11.3 4.6-21.5 2.2-10.2 4.3-19.6 4.6-21 .8-3.9 10.4-48 11.4-52.5.5-2.2 1.2-5.6 1.6-7.5.4-1.9.9-4 1-4.5.2-.8 6.7-30.7 7.9-36.5.5-2.1 5.8-26.3 8.8-40 1.4-6.3 2.8-12.6 3.1-14 .9-4.7 3.7-17.5 5.1-23.5.8-3.3 3.9-17.7 7-32s6-27.8 6.5-30c.5-2.2 2.1-9.2 3.4-15.5 1.4-6.3 5.3-24.1 8.6-39.5 3.4-15.4 6.4-28.9 6.6-30 .2-1.1.6-2.9.8-4 .3-1.1 1.6-7.4 3.1-14 1.4-6.6 4.2-19.2 6.1-28 1.9-8.8 4.6-21 5.9-27 1.3-6.1 2.6-12.1 2.9-13.5.3-1.4.7-3.4 1-4.5.7-3.2 4.7-21.6 5.1-23.6.2-1 2.2-9.9 4.4-19.6 2.2-9.8 4.2-18.9 4.5-20.3.9-5.1 4.8-22.8 6.6-30.5 1-4.4 2.1-9.4 2.3-11 .3-1.7 1.2-5.9 2.1-9.5.8-3.6 1.7-7.6 2-9 .2-1.4 1-4.8 1.6-7.5.6-2.8 1.4-6.1 1.6-7.5.3-1.4 1.1-5.2 1.9-8.5 1.2-5.4 7.9-36 9-41 .2-1.1 1.1-5.4 2-9.5.9-4.1 1.9-8.6 2.1-10 .3-1.4 1.6-7.2 2.9-13 3.3-14.8 5.8-26.3 6.1-27.5 1.7-9 4.8-22.6 5.3-23.4 1.8-2.8 64.5-20.8 83.1-23.7 1.9-.3 3.8-.8 4.1-.9.6-.4 22-4.1 28.9-5 2.5-.3 5.6-.8 7-1 1.4-.3 4.8-.7 7.5-1 4.8-.4 11.1-1.1 18.5-2 1.9-.2 9.6-.7 17-1.1 7.4-.4 13.6-.8 13.8-.9.5-.4 59.3.4 62.4.9zM465 575c0 .6-1.3 7-2.9 14.3-1.7 7.2-3.3 14.8-3.6 16.7-.3 1.9-1 5.1-1.5 7-.9 3.2-6.2 26.9-7.4 33-.2 1.4-1.2 5.9-2.1 10-.9 4.1-1.9 8.6-2.1 10-.3 1.4-.7 3.3-1 4.2-.5 1.7-1 4.2-1.9 9-.3 1.6-1.2 5.8-2.1 9.5-.9 3.8-1.7 7.5-1.9 8.3-.6 3.2-11.6 53.8-13 60-.8 3.6-2.2 9.9-3.1 14-.9 4.1-2.2 10.2-3 13.5-.7 3.3-2.5 11.4-3.9 18s-3.3 15.1-4.1 19c-.9 3.8-1.7 7.7-1.9 8.5-.2.8-2.2 10-4.5 20.5-2.3 10.4-4.4 20.1-4.6 21.5-.7 3.2-6.5 30.2-10.9 50-1.9 8.5-4.2 18.9-5.1 23-.8 4.1-1.7 8.2-1.9 9-.4 1.7-10.4 47.5-11.1 50.5-1.1 5.6-9.5 44.3-10 46-.6 2.5-4.4 20.1-5 23.5-.3 1.4-2.1 9.5-4 18-2 8.5-3.9 17.5-4.4 20-.5 2.5-2.7 12.6-4.9 22.5-2.1 9.9-6.5 29.7-9.5 44-3.1 14.3-6.3 28.7-7.1 32-.8 3.3-2.6 11.4-3.9 18-1.4 6.6-3.5 16-4.6 21-1.1 4.9-2.3 10.3-2.6 12-.3 1.6-.9 4.6-1.4 6.5-.5 1.9-1.9 8-3 13.5-1.2 5.5-2.3 10.7-2.5 11.5-1.1 4.7-2.4 10.8-2.9 13-.2 1.4-.9 4.5-1.5 7-.5 2.5-1.3 5.8-1.6 7.5-.3 1.6-1.6 7.5-2.8 13l-2.2 10-7.5.1c-9.2.2-24.6 1.2-28 1.9-1.4.3-4.1.8-6 1.1-17.4 2.7-43.4 12.9-59 23.3-3.4 2.3-6.3 4.1-6.6 4.1-.5 0-8.6-16.7-13.4-27.8-9.8-22.6-24.8-65.6-28.5-81.2-.2-.8-1.2-5.1-2.4-9.6-1.1-4.4-2.8-11.4-3.7-15.5-.8-4.1-1.7-8.3-2-9.4-.9-4.1-1.5-7.4-3.9-21.5-1.3-8-2.7-16.4-3-18.8-.3-2.3-.7-5.9-1-8-1.2-8.7-2.5-24-3.2-35.9-1.4-23.1-.7-77.2 1.1-88.3.3-1.4.7-5.9 1.1-10 .5-6.6 1.9-17.9 3-25 .2-1.4.9-5.6 1.5-9.4 1.4-8.7 4.3-23.4 7-35.6 1.2-5.2 2.3-10.3 2.5-11.3.2-1 .7-2.7 1-3.7.3-1 .8-2.7 1-3.7 1.9-8.7 14.5-48.6 18-56.8.7-1.7 2.8-6.8 4.6-11.5 9.1-23.7 28.3-63.1 38.9-80 .5-.8 2.5-4.3 4.5-7.8 10.7-18.6 35.4-53.3 52.3-73.4 45.5-54.3 102.4-102.4 160.9-135.9 8.1-4.7 36.8-19.9 37.6-19.9.4 0 .7.5.7 1zm680.4 114.2c8.9 9 19.3 19.9 23.1 24.3 3.9 4.4 7.3 8.2 7.6 8.5 6.3 5.6 47.1 60.5 51.2 69.1.4.8 2.7 4.5 5.2 8.4 21.6 34.4 42.3 78.7 57 122 9.6 28.3 19.7 69.3 23.1 93.5.2 1.9.7 4.6.9 6 1.4 7.6 3 20.8 4 33 .3 4.1.8 8.8 1 10.5 1.1 9.2 2.3 55.2 1.5 56.5-.3.4-15.3 6.5-33.5 13.5-18.1 7-36.8 14.2-41.5 16-4.7 1.8-18.2 7-30 11.5s-22.4 8.5-23.5 9c-1.1.5-47.2 18.3-102.5 39.6-55.3 21.2-103.2 39.6-106.5 40.9-3.3 1.3-19 7.4-35 13.5-15.9 6.1-29.9 11.5-31 12-1.1.4-8.5 3.3-16.5 6.4-8 3-18.5 7-23.5 8.9-4.9 1.9-16.9 6.5-26.5 10.1-9.6 3.7-18.4 7.1-19.5 7.6-1.1.5-5.1 2.1-9 3.5-3.8 1.4-7.9 2.9-9 3.4-1.1.6-24.4 9.6-51.7 20-27.3 10.5-54.3 20.9-60 23.2-5.7 2.2-10.7 4.2-11.3 4.3-.5.2-1.9.7-3 1.1-1.1.5-13 5-26.5 10.2-13.5 5.1-25.4 9.7-26.5 10.2-1.1.5-4.5 1.8-7.5 2.9-3 1.1-10.7 4.1-17 6.5-6.3 2.5-21.2 8.2-33 12.7s-22.6 8.6-24 9.2c-1.4.6-3.4 1.4-4.5 1.9s-12.6 4.8-25.5 9.8c-12.9 4.9-27.5 10.5-32.5 12.4-21.1 8.3-41.2 16-43.8 16.8-2.4.7-2.9.5-3.8-1.8-.5-1.4-.8-2.7-.7-2.8.2-.1 10.4-6.5 22.8-14.2 12.4-7.7 41.2-25.6 64-39.8 22.8-14.2 55.2-34.3 72-44.8 16.8-10.4 32.1-20 34-21.2 1.9-1.3 15.4-9.7 30-18.7 14.6-9.1 47.4-29.5 73-45.5 25.6-15.9 58-36.1 72-44.8 54.5-33.9 71.6-44.5 73-45.5 17.2-11.3 58.4-36 58.9-35.3.3.6 3.9 3.6 8 6.7 10.2 7.8 24.8 14.7 36.5 17.2 9.6 2.1 13.4 2.5 22.2 2.5 33.7.2 64.5-16.3 83.2-44.6 5.7-8.7 12.3-24.2 13.7-32.5.2-1.4.7-4.1 1-6 2.1-11.8.8-30.6-3-43.4-11-37.3-44.7-65.4-83.5-69.5-30.1-3.2-59.3 7.2-80.5 28.6-24.1 24.3-34.1 60.1-25.9 92.2.8 3 1.3 5.5 1.1 5.7-.1.1-3.1 1.9-6.7 4.1-3.6 2.2-23.8 14.8-45 28s-52 32.4-68.5 42.6c-16.5 10.3-30.7 19.2-31.5 19.7-1.5 1.1-4 2.6-23.2 14.4-6.2 3.8-14.2 8.8-17.8 11.1-6.3 4-77.5 48.4-81.5 50.8-1 .7-4.9 3.1-8.5 5.3-6.3 4-23.9 14.9-46.5 28.9-6 3.7-13.2 8.2-16 10-2.7 1.7-8.1 5.1-12 7.5-3.8 2.4-8.6 5.3-10.5 6.6-1.9 1.2-22.8 14.2-46.5 28.9-23.6 14.7-51.7 32.1-62.3 38.8-18.7 11.6-19.3 11.9-21.2 10.2-1.1-1-2-2.1-2-2.4 0-.8 9.4-10.6 48.9-51 16.8-17.2 34.8-35.6 40-41 5.1-5.3 23.2-23.8 40.1-41.1 16.9-17.3 34.5-35.3 39-40 4.5-4.7 22.1-22.7 39-40 17-17.3 35.6-36.5 41.5-42.5 5.9-6.1 24.1-24.7 40.4-41.4 16.3-16.7 34-34.9 39.5-40.5 5.4-5.5 23.2-23.8 39.5-40.5s34.1-35 39.6-40.6c5.5-5.7 23.7-24.3 40.5-41.5s34.8-35.6 40-41c5.2-5.3 22.8-23.3 39-40 16.2-16.6 33.8-34.6 39-40 5.2-5.4 23.5-24.1 40.6-41.6 17.1-17.6 35.1-36 39.9-40.9 40.8-42 67-68.5 67.9-68.5.5 0 8.2 7.3 17 16.2zm170.5 493c-.4 2.9-1 7.1-1.3 9.3-2.7 20.6-5.5 35.2-11.3 59.5-1.3 5.8-2.6 11.2-2.8 12-3 12.9-14.2 46.3-23.2 69-6 15.2-25 55.1-32.4 68-14.4 25.3-30.6 50-47.2 71.8-19.2 25.2-50.1 58.9-72.7 79.2-67.7 60.7-143.2 103.7-227 129.3-24.7 7.6-58.7 15.5-78 18.2-1.4.2-3.8.6-5.5.9-8.9 1.5-35.3 4.5-44.5 5.1-22.5 1.4-30 1.7-47 1.7-18-.1-25.8-.4-44.5-1.7-8.3-.6-22.2-2-29.5-3-1.4-.2-5-.7-8-1-3-.4-6.4-.9-7.5-1.1-1.1-.2-5.1-.9-9-1.5-3.8-.6-8.6-1.4-10.5-1.9-1.9-.5-5.1-1.1-7-1.4-2.8-.4-28.2-6.3-35-8.1-14.7-3.9-48.6-14.7-56.5-18-2.9-1.2-5.1-2-6.7-2.4-.7-.2-9.3-3.8-14.3-6.1-1.1-.5-5.8-2.5-10.5-4.6-13.1-5.6-40.4-19.4-51.8-26-5.6-3.2-11.4-6.6-13-7.5-1.5-.8-4.2-2.4-5.9-3.5l-3.3-2.1 4.6-5.9c22.6-28.9 34-59.9 35.7-97.3l.2-3.3 18-6.9c9.9-3.8 22.5-8.7 28-10.8 12.5-4.9 15-5.9 88.5-34.1 33.3-12.7 61.4-23.5 62.5-24 1.1-.5 9.2-3.7 18-7.1 8.8-3.3 26.6-10.1 39.5-15.1 12.9-5 26.2-10.1 29.5-11.4 8.1-3 98.5-37.8 101-38.9 1.1-.4 2.5-.9 3-1.1 1.6-.5 89.6-34.3 94.5-36.4 2.5-1 8.1-3.2 12.5-4.9 4.4-1.6 13.4-5.1 20-7.6s16.7-6.4 22.5-8.6c13.8-5.3 18.1-7 20.5-8 1.1-.5 6.7-2.7 12.5-4.8 16.4-6.2 156.3-60 158.5-61 1.1-.6 8.8-3.5 17-6.6 14.4-5.5 34.2-13.1 41.5-16 5.5-2.2 42.9-16.6 48.5-18.6 2.8-1.1 10-3.9 16-6.3 14.6-5.8 14.4-5.9 13.4.6zm-1010 223.4c31.4 5.7 59.3 26.9 73.5 55.9 5.2 10.5 6.8 15.2 9.1 25.9 8 38.9-8 81-39.8 104.5-11.5 8.4-29.9 16.6-41.8 18.6-2.4.4-5.3.9-6.4 1.2-5 1.1-21.8 1-29.2-.2-7.8-1.3-17.5-3.7-21.8-5.4-8.8-3.6-22.4-10.8-24.5-13.1-.3-.3-2.1-1.7-4.2-3.2-11.3-8.5-21.9-21.9-29.3-37.4-8-16.7-11.3-36.5-9.3-55.9 4.7-44.1 38.3-81.4 81.6-90.4 4.8-1 10.7-1.9 13.2-2 2.4-.1 4.6-.4 4.8-.6.8-.7 15.7.6 24.1 2.1z"/></svg>